<mxfile host="app.diagrams.net" modified="2024-04-24T01:32:01.672Z" agent="Mozilla/5.0 (Macintosh; Intel Mac OS X 10_15_7) AppleWebKit/537.36 (KHTML, like Gecko) Chrome/124.0.0.0 Safari/537.36" version="24.2.3" etag="HKb4nsBcfZZyOb5O6QV7" type="github">
  <diagram name="Page-1" id="ZeTlL_xVrLsIGwLVDoQz">
    <mxGraphModel>
      <root>
        <mxCell id="0" />
        <mxCell id="1" parent="0" />
      </root>
    </mxGraphModel>
  </diagram>
</mxfile>
